<svg width="32" height="32" viewBox="0 0 32 32" fill="none" xmlns="http://www.w3.org/2000/svg">
<rect width="32" height="32" rx="12" fill="#B1EF72"/>
<path d="M9.72266 16.1022C9.94043 15.5652 10.148 15.0475 10.456 14.5192C10.5937 14.7744 10.5326 15.0084 10.5882 15.2223C10.6643 15.5154 10.7102 15.8154 10.8484 16.0912C11.0254 16.4446 11.3898 16.6269 11.7894 16.5593C12.1844 16.4924 12.4595 16.197 12.5037 15.806C12.5507 15.3909 12.4678 14.9827 12.4408 14.5718C12.354 13.2561 12.8478 12.1772 13.8224 11.2721C14.431 10.7069 15.0482 10.1478 15.5598 9.49171C16.1412 8.74631 16.4575 7.92756 16.3795 6.98251C16.3516 6.64398 16.2146 6.33433 16.1404 6C17.3606 6.91485 18.2425 8.06148 18.7222 9.48195C19.1961 10.8856 19.2563 12.3327 19.1621 13.8039C19.6134 13.0681 20.0735 12.3606 20.8679 11.9139C20.8851 11.9657 20.9073 11.9957 20.8998 12.015C20.5316 12.9734 20.7677 13.8797 21.1805 14.7575C21.5808 15.6084 22.026 16.4394 22.4361 17.2862C23.1136 18.6849 23.2122 20.1075 22.5587 21.5409C22.0903 22.5683 21.2675 23.2984 20.3272 23.9127C19.6747 24.3389 19.0006 24.7344 18.336 25.1433C18.0004 25.3497 17.7176 25.6141 17.4523 25.9486C17.3782 25.7399 17.4572 25.5963 17.4925 25.4531C17.685 24.6726 18.1218 24.0003 18.5432 23.3266C19.2134 22.2549 19.6059 21.115 19.5096 19.8531C19.3842 18.2092 18.7079 16.8148 17.4237 15.7106C17.3678 15.6625 17.3026 15.6243 17.2 15.5521C17.3033 15.8834 17.4517 16.1548 17.495 16.4573C17.6378 17.4554 17.3073 18.2991 16.6019 19.0189C16.1124 19.5185 15.5992 19.9969 15.1496 20.5319C14.4943 21.3118 14.0032 22.1539 14.0762 23.2068C14.0787 23.2429 14.0725 23.28 14.0665 23.316C14.0636 23.3331 14.0515 23.3487 14.0208 23.4117C13.0947 23.0349 12.5604 22.3155 12.1361 21.476C11.7872 23.3427 12.4749 24.8089 14.0355 26C13.7751 25.9986 13.6313 25.9011 13.4859 25.8328C11.4795 24.8903 9.98345 23.4877 9.27679 21.3995C8.87606 20.2153 8.95901 19.015 9.21869 17.8144C9.34325 17.2386 9.53263 16.6819 9.72266 16.1022Z" fill="black"/>
</svg>
